<mxfile host="Electron" modified="2023-10-06T02:03:01.346Z" agent="Mozilla/5.0 (Windows NT 10.0; Win64; x64) AppleWebKit/537.36 (KHTML, like Gecko) draw.io/21.6.8 Chrome/114.0.5735.289 Electron/25.5.0 Safari/537.36" etag="-XodP36FLQMQNNe2Tehb" version="21.6.8" type="device">
  <diagram name="Page-1" id="j6FhIRpirDzdzlPT089A">
    <mxGraphModel dx="1571" dy="956" grid="1" gridSize="10" guides="1" tooltips="1" connect="1" arrows="1" fold="1" page="1" pageScale="1" pageWidth="850" pageHeight="1100" math="0" shadow="0">
      <root>
        <mxCell id="0" />
        <mxCell id="1" parent="0" />
        <mxCell id="NQX25y1X5CqhtlNTUpgu-46" value="" style="rounded=0;whiteSpace=wrap;html=1;strokeColor=#E07A5F;fillColor=none;strokeWidth=3;labelBackgroundColor=none;fontColor=#393C56;" vertex="1" parent="1">
          <mxGeometry x="172" y="232.5" width="612" height="497.5" as="geometry" />
        </mxCell>
        <mxCell id="NQX25y1X5CqhtlNTUpgu-47" style="rounded=0;orthogonalLoop=1;jettySize=auto;html=1;exitX=0.5;exitY=0.5;exitDx=0;exitDy=0;exitPerimeter=0;entryX=0;entryY=0.5;entryDx=0;entryDy=0;labelBackgroundColor=none;strokeColor=#E07A5F;fontColor=default;" edge="1" parent="1" source="NQX25y1X5CqhtlNTUpgu-48" target="NQX25y1X5CqhtlNTUpgu-65">
          <mxGeometry relative="1" as="geometry" />
        </mxCell>
        <mxCell id="NQX25y1X5CqhtlNTUpgu-48" value="Administrador" style="shape=umlActor;verticalLabelPosition=bottom;verticalAlign=top;html=1;outlineConnect=0;fontColor=#393C56;labelBackgroundColor=none;fillColor=#F2CC8F;strokeColor=#E07A5F;" vertex="1" parent="1">
          <mxGeometry x="102" y="452" width="30" height="60" as="geometry" />
        </mxCell>
        <mxCell id="NQX25y1X5CqhtlNTUpgu-49" style="rounded=0;orthogonalLoop=1;jettySize=auto;html=1;exitX=0.5;exitY=1;exitDx=0;exitDy=0;entryX=0.5;entryY=0;entryDx=0;entryDy=0;labelBackgroundColor=none;strokeColor=#E07A5F;fontColor=default;" edge="1" parent="1" source="NQX25y1X5CqhtlNTUpgu-65" target="NQX25y1X5CqhtlNTUpgu-77">
          <mxGeometry relative="1" as="geometry" />
        </mxCell>
        <mxCell id="NQX25y1X5CqhtlNTUpgu-50" value="include" style="edgeLabel;html=1;align=center;verticalAlign=middle;resizable=0;points=[];labelBackgroundColor=none;fontColor=#393C56;" vertex="1" connectable="0" parent="NQX25y1X5CqhtlNTUpgu-49">
          <mxGeometry x="-0.1175" y="1" relative="1" as="geometry">
            <mxPoint y="1" as="offset" />
          </mxGeometry>
        </mxCell>
        <mxCell id="NQX25y1X5CqhtlNTUpgu-51" style="rounded=0;orthogonalLoop=1;jettySize=auto;html=1;exitX=1;exitY=0.5;exitDx=0;exitDy=0;entryX=0;entryY=0.5;entryDx=0;entryDy=0;labelBackgroundColor=none;strokeColor=#E07A5F;fontColor=default;" edge="1" parent="1" source="NQX25y1X5CqhtlNTUpgu-65" target="NQX25y1X5CqhtlNTUpgu-85">
          <mxGeometry relative="1" as="geometry" />
        </mxCell>
        <mxCell id="NQX25y1X5CqhtlNTUpgu-52" value="include" style="edgeLabel;html=1;align=center;verticalAlign=middle;resizable=0;points=[];labelBackgroundColor=none;fontColor=#393C56;" vertex="1" connectable="0" parent="NQX25y1X5CqhtlNTUpgu-51">
          <mxGeometry x="-0.0792" y="3" relative="1" as="geometry">
            <mxPoint as="offset" />
          </mxGeometry>
        </mxCell>
        <mxCell id="NQX25y1X5CqhtlNTUpgu-53" style="rounded=0;orthogonalLoop=1;jettySize=auto;html=1;exitX=1;exitY=0.5;exitDx=0;exitDy=0;entryX=0;entryY=0.5;entryDx=0;entryDy=0;labelBackgroundColor=none;strokeColor=#E07A5F;fontColor=default;" edge="1" parent="1" source="NQX25y1X5CqhtlNTUpgu-65" target="NQX25y1X5CqhtlNTUpgu-69">
          <mxGeometry relative="1" as="geometry" />
        </mxCell>
        <mxCell id="NQX25y1X5CqhtlNTUpgu-54" value="include" style="edgeLabel;html=1;align=center;verticalAlign=middle;resizable=0;points=[];labelBackgroundColor=none;fontColor=#393C56;" vertex="1" connectable="0" parent="NQX25y1X5CqhtlNTUpgu-53">
          <mxGeometry x="0.2573" y="3" relative="1" as="geometry">
            <mxPoint as="offset" />
          </mxGeometry>
        </mxCell>
        <mxCell id="NQX25y1X5CqhtlNTUpgu-55" style="rounded=0;orthogonalLoop=1;jettySize=auto;html=1;entryX=0;entryY=0.64;entryDx=0;entryDy=0;entryPerimeter=0;exitX=1;exitY=0.5;exitDx=0;exitDy=0;labelBackgroundColor=none;strokeColor=#E07A5F;fontColor=default;" edge="1" parent="1" source="NQX25y1X5CqhtlNTUpgu-65" target="NQX25y1X5CqhtlNTUpgu-72">
          <mxGeometry relative="1" as="geometry" />
        </mxCell>
        <mxCell id="NQX25y1X5CqhtlNTUpgu-56" value="include" style="edgeLabel;html=1;align=center;verticalAlign=middle;resizable=0;points=[];labelBackgroundColor=none;fontColor=#393C56;" vertex="1" connectable="0" parent="NQX25y1X5CqhtlNTUpgu-55">
          <mxGeometry x="-0.0674" y="-3" relative="1" as="geometry">
            <mxPoint as="offset" />
          </mxGeometry>
        </mxCell>
        <mxCell id="NQX25y1X5CqhtlNTUpgu-57" style="rounded=0;orthogonalLoop=1;jettySize=auto;html=1;entryX=0;entryY=0.5;entryDx=0;entryDy=0;exitX=1;exitY=0.5;exitDx=0;exitDy=0;labelBackgroundColor=none;strokeColor=#E07A5F;fontColor=default;" edge="1" parent="1" source="NQX25y1X5CqhtlNTUpgu-65" target="NQX25y1X5CqhtlNTUpgu-76">
          <mxGeometry relative="1" as="geometry" />
        </mxCell>
        <mxCell id="NQX25y1X5CqhtlNTUpgu-58" value="include" style="edgeLabel;html=1;align=center;verticalAlign=middle;resizable=0;points=[];labelBackgroundColor=none;fontColor=#393C56;" vertex="1" connectable="0" parent="NQX25y1X5CqhtlNTUpgu-57">
          <mxGeometry x="0.1405" y="3" relative="1" as="geometry">
            <mxPoint as="offset" />
          </mxGeometry>
        </mxCell>
        <mxCell id="NQX25y1X5CqhtlNTUpgu-59" style="rounded=0;orthogonalLoop=1;jettySize=auto;html=1;entryX=0.027;entryY=0.64;entryDx=0;entryDy=0;entryPerimeter=0;exitX=1;exitY=0.5;exitDx=0;exitDy=0;labelBackgroundColor=none;strokeColor=#E07A5F;fontColor=default;" edge="1" parent="1" source="NQX25y1X5CqhtlNTUpgu-65" target="NQX25y1X5CqhtlNTUpgu-73">
          <mxGeometry relative="1" as="geometry" />
        </mxCell>
        <mxCell id="NQX25y1X5CqhtlNTUpgu-60" value="include" style="edgeLabel;html=1;align=center;verticalAlign=middle;resizable=0;points=[];labelBackgroundColor=none;fontColor=#393C56;" vertex="1" connectable="0" parent="NQX25y1X5CqhtlNTUpgu-59">
          <mxGeometry x="-0.1466" y="-1" relative="1" as="geometry">
            <mxPoint as="offset" />
          </mxGeometry>
        </mxCell>
        <mxCell id="NQX25y1X5CqhtlNTUpgu-61" style="rounded=0;orthogonalLoop=1;jettySize=auto;html=1;exitX=1;exitY=0.5;exitDx=0;exitDy=0;entryX=0;entryY=0.5;entryDx=0;entryDy=0;labelBackgroundColor=none;strokeColor=#E07A5F;fontColor=default;" edge="1" parent="1" source="NQX25y1X5CqhtlNTUpgu-65" target="NQX25y1X5CqhtlNTUpgu-66">
          <mxGeometry relative="1" as="geometry">
            <mxPoint x="288" y="330" as="targetPoint" />
          </mxGeometry>
        </mxCell>
        <mxCell id="NQX25y1X5CqhtlNTUpgu-62" value="include" style="edgeLabel;html=1;align=center;verticalAlign=middle;resizable=0;points=[];labelBackgroundColor=none;fontColor=#393C56;" vertex="1" connectable="0" parent="NQX25y1X5CqhtlNTUpgu-61">
          <mxGeometry x="-0.1702" y="-1" relative="1" as="geometry">
            <mxPoint as="offset" />
          </mxGeometry>
        </mxCell>
        <mxCell id="NQX25y1X5CqhtlNTUpgu-63" style="rounded=0;orthogonalLoop=1;jettySize=auto;html=1;exitX=0.5;exitY=0;exitDx=0;exitDy=0;entryX=0.5;entryY=1;entryDx=0;entryDy=0;labelBackgroundColor=none;strokeColor=#E07A5F;fontColor=default;" edge="1" parent="1" source="NQX25y1X5CqhtlNTUpgu-65" target="NQX25y1X5CqhtlNTUpgu-82">
          <mxGeometry relative="1" as="geometry" />
        </mxCell>
        <mxCell id="NQX25y1X5CqhtlNTUpgu-64" value="include" style="edgeLabel;html=1;align=center;verticalAlign=middle;resizable=0;points=[];labelBackgroundColor=none;fontColor=#393C56;" vertex="1" connectable="0" parent="NQX25y1X5CqhtlNTUpgu-63">
          <mxGeometry x="-0.2125" y="-2" relative="1" as="geometry">
            <mxPoint as="offset" />
          </mxGeometry>
        </mxCell>
        <mxCell id="NQX25y1X5CqhtlNTUpgu-65" value="Iniciar sesiÃ³n" style="ellipse;whiteSpace=wrap;html=1;fontColor=#393C56;labelBackgroundColor=none;fillColor=#F2CC8F;strokeColor=#E07A5F;" vertex="1" parent="1">
          <mxGeometry x="213" y="458" width="110" height="50" as="geometry" />
        </mxCell>
        <mxCell id="NQX25y1X5CqhtlNTUpgu-66" value="Gestionar usuarios" style="ellipse;whiteSpace=wrap;html=1;fontColor=#393C56;labelBackgroundColor=none;fillColor=#F2CC8F;strokeColor=#E07A5F;" vertex="1" parent="1">
          <mxGeometry x="433" y="244" width="110" height="50" as="geometry" />
        </mxCell>
        <mxCell id="NQX25y1X5CqhtlNTUpgu-67" style="rounded=0;orthogonalLoop=1;jettySize=auto;html=1;exitX=1;exitY=0.5;exitDx=0;exitDy=0;entryX=0;entryY=0.5;entryDx=0;entryDy=0;labelBackgroundColor=none;strokeColor=#E07A5F;fontColor=default;" edge="1" parent="1" source="NQX25y1X5CqhtlNTUpgu-69" target="NQX25y1X5CqhtlNTUpgu-86">
          <mxGeometry relative="1" as="geometry" />
        </mxCell>
        <mxCell id="NQX25y1X5CqhtlNTUpgu-68" value="include" style="edgeLabel;html=1;align=center;verticalAlign=middle;resizable=0;points=[];labelBackgroundColor=none;fontColor=#393C56;" vertex="1" connectable="0" parent="NQX25y1X5CqhtlNTUpgu-67">
          <mxGeometry x="-0.0856" relative="1" as="geometry">
            <mxPoint as="offset" />
          </mxGeometry>
        </mxCell>
        <mxCell id="NQX25y1X5CqhtlNTUpgu-69" value="Gestionar cuentas" style="ellipse;whiteSpace=wrap;html=1;fontColor=#393C56;labelBackgroundColor=none;fillColor=#F2CC8F;strokeColor=#E07A5F;" vertex="1" parent="1">
          <mxGeometry x="448" y="503" width="110" height="50" as="geometry" />
        </mxCell>
        <mxCell id="NQX25y1X5CqhtlNTUpgu-70" style="edgeStyle=orthogonalEdgeStyle;rounded=0;orthogonalLoop=1;jettySize=auto;html=1;exitX=1;exitY=0.5;exitDx=0;exitDy=0;entryX=0;entryY=0.5;entryDx=0;entryDy=0;strokeColor=#E07A5F;fontColor=default;fillColor=#F2CC8F;dashed=1;labelBackgroundColor=none;" edge="1" parent="1" source="NQX25y1X5CqhtlNTUpgu-72" target="NQX25y1X5CqhtlNTUpgu-80">
          <mxGeometry relative="1" as="geometry" />
        </mxCell>
        <mxCell id="NQX25y1X5CqhtlNTUpgu-71" value="extend" style="edgeLabel;html=1;align=center;verticalAlign=middle;resizable=0;points=[];fontColor=#393C56;labelBackgroundColor=none;" vertex="1" connectable="0" parent="NQX25y1X5CqhtlNTUpgu-70">
          <mxGeometry x="-0.2079" y="-1" relative="1" as="geometry">
            <mxPoint as="offset" />
          </mxGeometry>
        </mxCell>
        <mxCell id="NQX25y1X5CqhtlNTUpgu-72" value="Gestionar meta" style="ellipse;whiteSpace=wrap;html=1;fontColor=#393C56;labelBackgroundColor=none;fillColor=#F2CC8F;strokeColor=#E07A5F;" vertex="1" parent="1">
          <mxGeometry x="443" y="318" width="110" height="50" as="geometry" />
        </mxCell>
        <mxCell id="NQX25y1X5CqhtlNTUpgu-73" value="Gestionar agenda" style="ellipse;whiteSpace=wrap;html=1;fontColor=#393C56;labelBackgroundColor=none;fillColor=#F2CC8F;strokeColor=#E07A5F;" vertex="1" parent="1">
          <mxGeometry x="448" y="581" width="110" height="50" as="geometry" />
        </mxCell>
        <mxCell id="NQX25y1X5CqhtlNTUpgu-74" style="rounded=0;orthogonalLoop=1;jettySize=auto;html=1;exitX=1;exitY=0.5;exitDx=0;exitDy=0;entryX=0;entryY=0.5;entryDx=0;entryDy=0;labelBackgroundColor=none;strokeColor=#E07A5F;fontColor=default;" edge="1" parent="1" source="NQX25y1X5CqhtlNTUpgu-76" target="NQX25y1X5CqhtlNTUpgu-89">
          <mxGeometry relative="1" as="geometry" />
        </mxCell>
        <mxCell id="NQX25y1X5CqhtlNTUpgu-75" value="include" style="edgeLabel;html=1;align=center;verticalAlign=middle;resizable=0;points=[];labelBackgroundColor=none;fontColor=#393C56;" vertex="1" connectable="0" parent="NQX25y1X5CqhtlNTUpgu-74">
          <mxGeometry x="-0.1629" y="-3" relative="1" as="geometry">
            <mxPoint as="offset" />
          </mxGeometry>
        </mxCell>
        <mxCell id="NQX25y1X5CqhtlNTUpgu-76" value="Gestonar transacciones&lt;p class=&quot;MsoNormal&quot;&gt;&lt;span style=&quot;font-size: 9pt; line-height: 107%; font-family: Helvetica, sans-serif; background-image: initial; background-position: initial; background-size: initial; background-repeat: initial; background-attachment: initial; background-origin: initial; background-clip: initial;&quot;&gt;&lt;/span&gt;&lt;/p&gt;" style="ellipse;whiteSpace=wrap;html=1;fontColor=#393C56;labelBackgroundColor=none;fillColor=#F2CC8F;strokeColor=#E07A5F;" vertex="1" parent="1">
          <mxGeometry x="448" y="416" width="110" height="50" as="geometry" />
        </mxCell>
        <mxCell id="NQX25y1X5CqhtlNTUpgu-77" value="Generar reporte" style="ellipse;whiteSpace=wrap;html=1;fontColor=#393C56;labelBackgroundColor=none;fillColor=#F2CC8F;strokeColor=#E07A5F;" vertex="1" parent="1">
          <mxGeometry x="213" y="573" width="110" height="50" as="geometry" />
        </mxCell>
        <mxCell id="NQX25y1X5CqhtlNTUpgu-78" style="rounded=0;orthogonalLoop=1;jettySize=auto;html=1;exitX=0.5;exitY=1;exitDx=0;exitDy=0;entryX=0.5;entryY=0;entryDx=0;entryDy=0;labelBackgroundColor=none;strokeColor=#E07A5F;fontColor=default;" edge="1" parent="1" source="NQX25y1X5CqhtlNTUpgu-80" target="NQX25y1X5CqhtlNTUpgu-89">
          <mxGeometry relative="1" as="geometry" />
        </mxCell>
        <mxCell id="NQX25y1X5CqhtlNTUpgu-79" value="include" style="edgeLabel;html=1;align=center;verticalAlign=middle;resizable=0;points=[];labelBackgroundColor=none;fontColor=#393C56;" vertex="1" connectable="0" parent="NQX25y1X5CqhtlNTUpgu-78">
          <mxGeometry y="3" relative="1" as="geometry">
            <mxPoint as="offset" />
          </mxGeometry>
        </mxCell>
        <mxCell id="NQX25y1X5CqhtlNTUpgu-80" value="Completar meta" style="ellipse;whiteSpace=wrap;html=1;fontColor=#393C56;labelBackgroundColor=none;fillColor=#F2CC8F;strokeColor=#E07A5F;" vertex="1" parent="1">
          <mxGeometry x="633" y="318" width="110" height="50" as="geometry" />
        </mxCell>
        <mxCell id="NQX25y1X5CqhtlNTUpgu-81" value="&lt;p class=&quot;MsoNormal&quot;&gt;Sistema de gestiÃ³n de&lt;br/&gt;finanzas personales &quot;Accountly&quot;&lt;/p&gt;" style="text;html=1;align=center;verticalAlign=middle;whiteSpace=wrap;rounded=0;fillColor=#F2CC8F;strokeColor=#E07A5F;fontColor=#393C56;labelBackgroundColor=none;" vertex="1" parent="1">
          <mxGeometry x="384" y="190" width="200" height="30" as="geometry" />
        </mxCell>
        <mxCell id="NQX25y1X5CqhtlNTUpgu-82" value="Cerrar sesiÃ³n" style="ellipse;whiteSpace=wrap;html=1;fontColor=#393C56;labelBackgroundColor=none;fillColor=#F2CC8F;strokeColor=#E07A5F;" vertex="1" parent="1">
          <mxGeometry x="213" y="344" width="110" height="50" as="geometry" />
        </mxCell>
        <mxCell id="NQX25y1X5CqhtlNTUpgu-83" style="rounded=0;orthogonalLoop=1;jettySize=auto;html=1;exitX=1;exitY=0.5;exitDx=0;exitDy=0;entryX=0;entryY=0.5;entryDx=0;entryDy=0;strokeColor=#E07A5F;fontColor=#393C56;fillColor=#F2CC8F;" edge="1" parent="1" source="NQX25y1X5CqhtlNTUpgu-85" target="NQX25y1X5CqhtlNTUpgu-90">
          <mxGeometry relative="1" as="geometry" />
        </mxCell>
        <mxCell id="NQX25y1X5CqhtlNTUpgu-84" value="include" style="edgeLabel;html=1;align=center;verticalAlign=middle;resizable=0;points=[];fontColor=#393C56;" vertex="1" connectable="0" parent="NQX25y1X5CqhtlNTUpgu-83">
          <mxGeometry x="0.0632" y="-5" relative="1" as="geometry">
            <mxPoint x="-1" as="offset" />
          </mxGeometry>
        </mxCell>
        <mxCell id="NQX25y1X5CqhtlNTUpgu-85" value="Gestionar divisas" style="ellipse;whiteSpace=wrap;html=1;fontColor=#393C56;labelBackgroundColor=none;fillColor=#F2CC8F;strokeColor=#E07A5F;" vertex="1" parent="1">
          <mxGeometry x="443" y="660" width="110" height="50" as="geometry" />
        </mxCell>
        <mxCell id="NQX25y1X5CqhtlNTUpgu-86" value="Seleccionar cuenta" style="ellipse;whiteSpace=wrap;html=1;fontColor=#393C56;labelBackgroundColor=none;fillColor=#F2CC8F;strokeColor=#E07A5F;" vertex="1" parent="1">
          <mxGeometry x="617" y="498" width="110" height="50" as="geometry" />
        </mxCell>
        <mxCell id="NQX25y1X5CqhtlNTUpgu-87" style="rounded=0;orthogonalLoop=1;jettySize=auto;html=1;exitX=0.5;exitY=1;exitDx=0;exitDy=0;entryX=0.5;entryY=0;entryDx=0;entryDy=0;labelBackgroundColor=none;strokeColor=#E07A5F;fontColor=default;" edge="1" parent="1" source="NQX25y1X5CqhtlNTUpgu-89" target="NQX25y1X5CqhtlNTUpgu-86">
          <mxGeometry relative="1" as="geometry" />
        </mxCell>
        <mxCell id="NQX25y1X5CqhtlNTUpgu-88" value="include" style="edgeLabel;html=1;align=center;verticalAlign=middle;resizable=0;points=[];labelBackgroundColor=none;fontColor=#393C56;" vertex="1" connectable="0" parent="NQX25y1X5CqhtlNTUpgu-87">
          <mxGeometry x="-0.0842" relative="1" as="geometry">
            <mxPoint as="offset" />
          </mxGeometry>
        </mxCell>
        <mxCell id="NQX25y1X5CqhtlNTUpgu-89" value="Registrar transaccion" style="ellipse;whiteSpace=wrap;html=1;fontColor=#393C56;labelBackgroundColor=none;fillColor=#F2CC8F;strokeColor=#E07A5F;" vertex="1" parent="1">
          <mxGeometry x="633" y="398" width="110" height="50" as="geometry" />
        </mxCell>
        <mxCell id="NQX25y1X5CqhtlNTUpgu-90" value="Consultar divisas" style="ellipse;whiteSpace=wrap;html=1;fontColor=#393C56;labelBackgroundColor=none;fillColor=#F2CC8F;strokeColor=#E07A5F;" vertex="1" parent="1">
          <mxGeometry x="617" y="610" width="110" height="50" as="geometry" />
        </mxCell>
      </root>
    </mxGraphModel>
  </diagram>
</mxfile>
